<?xml version="1.0" encoding="utf-8"?>
<svg id="master-artboard" viewBox="0 0 1400 980" version="1.1" xmlns="http://www.w3.org/2000/svg" x="0px" y="0px" style="enable-background:new 0 0 336 235.2;" width="1400px" height="980px"><g transform="matrix(1.8484286147373064, 0, 0, 1.8484286147373064, -0.000009252756171918008, 70.40670585628726)"><path d="M55.2 332.6c0 7-2.7 12.6-8.2 16.6-5 3.6-11.1 5.4-18.4 5.4-2.1 0-5.2-.7-9.1-2.1-4-1.4-7-2.1-9.1-2.1-2.4 0-3.7 1.3-3.8 4H3.7l-3.7-26h3.1C9 343 17.3 350.3 27.9 350.3c4.2 0 7.8-1.3 10.5-3.9 2.8-2.6 4.2-6 4.2-10.2 0-5.6-3.3-10.7-10-15.2-6.3-3.9-12.5-7.8-18.7-11.6-6.8-5.2-10.2-11.4-10.2-18.6 0-6.2 2.1-11.2 6.3-15 4.2-3.8 9.4-5.7 15.6-5.7 2.1 0 5.1.7 8.9 2.1 3.8 1.4 6.7 2.1 8.6 2.1 2.3 0 3.6-1.4 3.9-4.2h2.8l2.7 26.1h-3.3c-1.1-5.7-3.5-10.6-7.5-14.6-4.2-4.3-9.2-6.5-14.8-6.5-3.5 0-6.5 1-8.9 3-2.4 2-3.7 4.8-3.7 8.3 0 5.2 3.5 10.2 10.6 14.8 6.5 4 13.1 8 19.7 12.1 7.1 5.5 10.6 11.9 10.6 19.3z" style="fill: rgb(255, 255, 255);"/><path class="st0" d="M87.7 275.8c0 1.9-.6 3.5-1.9 4.9-1.3 1.4-2.8 2.1-4.7 2.1-1.8 0-3.3-.7-4.4-2.1-1.1-1.4-1.7-3-1.7-4.9s.6-3.5 1.7-4.8c1.1-1.3 2.6-2 4.3-2 2 0 3.6.7 4.8 2 1.3 1.2 1.9 2.8 1.9 4.8zm-3.8 63.7c-6.1 9.9-12.2 14.8-18.1 14.8-4 0-6-2.2-6-6.7 0-4.1 1.7-11.5 5.1-22.2 3.4-10.7 5.1-17.6 5.1-20.6 0-1.7-1-2.7-2.9-3.1-.4-.1-2.1-.1-5-.1v-2.2c3.3 0 10.2-1.1 20.6-3.2l.5.4-10.6 38.8c-1.8 6.5-2.7 10.2-2.7 10.9 0 1.2.6 1.8 1.8 1.8 2.4 0 6-3.3 10.6-10l1.6 1.4z" style="fill-rule: evenodd; clip-rule: evenodd; fill: rgb(255, 255, 255);"/><path d="M137.4 309.2v44.6h-2.2L100 310.2l.1 31.6c0 3 .5 5.2 1.5 6.4 1 1.3 3 1.9 6.1 1.9v2.8H87.3v-2.8c3.2 0 5.3-.6 6.4-1.8 1.1-1.2 1.6-3.4 1.6-6.5v-37.1c-1.6-1.7-2.7-2.8-3.3-3.2-1-.6-2.5-.9-4.7-1v-2.7h14.9l30.4 38.1v-27.5c0-2.9-.5-4.8-1.6-5.8s-3.1-1.7-6.2-2.1v-2.7h20.4v2.7c-3.3.5-5.4 1.3-6.4 2.3s-1.4 3.2-1.4 6.4zM192.1 312.9c-.9-4.3-2.1-7.1-3.5-8.4-1.5-1.3-4.2-2-8.3-2H176v41c0 2.9.5 4.7 1.6 5.4s3.1 1.1 6.2 1.2v2.8h-25v-2.8c2.5-.1 4.3-.3 5.3-.7 1.6-.7 2.3-2 2.3-4v-42.8h-5.6c-3.6 0-6.1.9-7.5 2.6-1.1 1.3-2.1 3.9-2.9 7.8h-3.2l.6-15.1h46.9l.6 15.1h-3.2v-.1zM224.6 329.1h-24.2v-7.8h24.2v7.8z" style="fill: rgb(255, 255, 255);"/><path class="st0" d="M306.2 352.9h-31.3v-2.4c2.7 0 4.5-.2 5.5-.5 2-.6 3.1-1.9 3.1-3.9 0-1.6-1-4.9-2.9-9.8-1.6-4-3-7.3-4.4-9.8h-31.8c-1.3 3.3-2.6 6.5-3.9 9.7-1.8 4.7-2.7 7.8-2.7 9.4 0 3.3 2.8 4.9 8.3 4.9v2.4h-24.4v-2.4c4.5 0 8.4-4 11.8-12l28.9-68.1h2.6l31 70.9c1.4 3.1 2.6 5.2 3.7 6.4 1.6 1.7 3.9 2.7 6.7 2.8v2.4h-.2zm-31.9-31.6l-14-33.3-14 33.3h28z" style="fill-rule: evenodd; clip-rule: evenodd; fill: rgb(255, 255, 255);"/><path d="M350.7 309.2v44.6h-2.2l-35.1-43.6.1 31.6c0 3 .5 5.2 1.5 6.4 1 1.3 3 1.9 6.1 1.9v2.8h-20.4v-2.8c3.2 0 5.3-.6 6.4-1.8 1.1-1.2 1.6-3.4 1.6-6.5v-37.1c-1.6-1.7-2.7-2.8-3.3-3.2-1-.6-2.5-.9-4.7-1v-2.7h14.9l30.4 38.1v-27.5c0-2.9-.5-4.8-1.6-5.8s-3.1-1.7-6.2-2.1v-2.7h20.4v2.7c-3.3.5-5.4 1.3-6.4 2.3s-1.5 3.2-1.5 6.4zM411.5 309.2v44.6h-2.2l-35.1-43.6.1 31.6c0 3 .5 5.2 1.5 6.4 1 1.3 3 1.9 6.1 1.9v2.8h-20.4v-2.8c3.2 0 5.3-.6 6.4-1.8 1.1-1.2 1.6-3.4 1.6-6.5v-37.1c-1.6-1.7-2.7-2.8-3.3-3.2-1-.6-2.5-.9-4.7-1v-2.7h14.9l30.4 38.1v-27.5c0-2.9-.5-4.8-1.6-5.8s-3.1-1.7-6.2-2.1v-2.7h20.4v2.7c-3.3.5-5.4 1.3-6.4 2.3-1 1.1-1.5 3.2-1.5 6.4z" style="fill: rgb(255, 255, 255);"/><path class="st0" d="M467.8 304.7c0 12.2-12.2 20.3-36.5 24.4-.8 3.3-1.2 5.9-1.2 7.8 0 7.7 4 11.5 12 11.5 5.5 0 11.7-3.2 18.6-9.7l1.6 1.7c-7.6 9.2-16.5 13.8-26.7 13.8-5.1 0-9.1-1.6-12.2-4.7-3.1-3.1-4.6-7.3-4.6-12.4 0-9.8 4-19.1 12.1-27.8 8-8.7 16.9-13.1 26.6-13.1 2.9 0 5.3.7 7.3 2.2 2 1.5 3 3.6 3 6.3zm-8.8-.8c0-3.1-1.5-4.7-4.4-4.7-4.7 0-9.3 3.4-14.1 10.3-3.3 4.9-6.1 10.4-8.2 16.6 17.8-4.3 26.7-11.7 26.7-22.2z" style="fill-rule: evenodd; clip-rule: evenodd; fill: rgb(255, 255, 255);"/><path d="M522.2 309.2v44.6H520l-35.1-43.6.1 31.6c0 3 .5 5.2 1.5 6.4 1 1.3 3 1.9 6.1 1.9v2.8h-20.4v-2.8c3.2 0 5.3-.6 6.4-1.8 1.1-1.2 1.6-3.4 1.6-6.5v-37.1c-1.6-1.7-2.7-2.8-3.3-3.2-1-.6-2.5-.9-4.7-1v-2.7h14.9l30.4 38.1v-27.5c0-2.9-.5-4.8-1.6-5.8s-3.1-1.7-6.2-2.1v-2.7H530v2.7c-3.3.5-5.4 1.3-6.4 2.3-.9 1.1-1.4 3.2-1.4 6.4z" style="fill: rgb(255, 255, 255);"/><path class="st0" d="M558.2 352.9h-25.5v-2.8c4.8.1 7.2-1.6 7.2-4.9v-39.8c0-2.7-1.4-4.2-4.3-4.7 0 0-1-.1-2.9-.2v-2.7h24.4c9.2 0 16.6 2.5 22.3 7.6 5.6 5.1 8.4 12.2 8.4 21.3 0 8.1-3 14.5-9.1 19.3-5.5 4.6-12.4 6.9-20.5 6.9zm-4.8-50.9c-2.6 0-3.9.7-3.9 2.1V346c0 1.9 1.1 2.8 3.3 2.8 17 0 25.5-7.6 25.5-22.9 0-7.8-2.2-13.7-6.5-17.7-4.5-4.2-10.6-6.2-18.4-6.2zM650.5 340c-3.8 4.7-6.4 7.6-7.8 8.9-3.6 3.5-7 5.3-10.2 5.3-3.4 0-5.1-1.6-5.1-4.7 0-2.7.9-7.5 2.7-14.6-6.5 8.1-10.1 12.4-10.8 13-4.6 4.3-9.6 6.5-15.2 6.5-4 0-7.1-1.5-9.4-4.5-2.1-2.7-3.2-6.1-3.2-10.3 0-9.4 3.8-18.8 11.3-28.3 7.9-10.1 16.4-15.2 25.6-15.2 5.3 0 8.7 2.3 10.3 7l1.2-5.9c3.1-.4 5.8-.8 8.2-1.1l1.1.4c-8.2 30.8-12.2 47.1-12.2 48.8 0 1.4.6 2.1 1.7 2.1s2.9-1.3 5.5-3.9c1.6-1.6 3.3-3.3 4.9-5l1.4 1.5zm-14.3-32.9c0-5.3-2.7-8-8.2-8-6.4 0-12.4 5.3-18 15.8-5 9.3-7.5 17.5-7.5 24.6 0 2.3.7 4.2 2.2 5.9 1.5 1.6 3.3 2.4 5.6 2.4 6.4 0 12.5-5.3 18.2-15.8 5.1-9.3 7.7-17.6 7.7-24.9zM704.9 304.7c0 12.2-12.2 20.3-36.5 24.4-.8 3.3-1.2 5.9-1.2 7.8 0 7.7 4 11.5 12 11.5 5.5 0 11.7-3.2 18.6-9.7l1.6 1.7c-7.6 9.2-16.5 13.8-26.7 13.8-5.1 0-9.1-1.6-12.2-4.7-3.1-3.1-4.6-7.3-4.6-12.4 0-9.8 4-19.1 12.1-27.8 8-8.7 16.9-13.1 26.6-13.1 2.9 0 5.3.7 7.3 2.2 2 1.5 3 3.6 3 6.3zm-8.8-.8c0-3.1-1.5-4.7-4.4-4.7-4.7 0-9.3 3.4-14.1 10.3-3.3 4.9-6.1 10.4-8.2 16.6 17.8-4.3 26.7-11.7 26.7-22.2z" style="fill-rule: evenodd; clip-rule: evenodd; fill: rgb(255, 255, 255);"/><path d="M753.3 352.9h-44.8v-2.8c2.6-.1 4.4-.5 5.5-1.2 1.1-.7 1.6-2.2 1.6-4.6v-38.7c0-2.7-1.4-4.3-4.2-4.8-.4-.1-1.4-.2-2.9-.4v-2.7h24.2v2.7c-1.3.1-3.1.4-5.5 1-1.4.7-2.1 2.2-2.1 4.5v39.7c0 2 1.8 2.9 5.3 2.9 7.3 0 12-.4 14.3-1.1 4.1-1.4 7.2-4.7 9.4-10h3.3l-4.1 15.5z" style="fill: rgb(255, 255, 255);"/><path fill="none" stroke="#005ea3" stroke-width="3.274" stroke-miterlimit="3.8637" d="M753.3 390.5H3.7"/><path class="st2" d="M243.8 48.2c.2-8.7 2.6-16.9 6.8-24 91.2-1.4 195.4 148.6 264.8 143.6V179c0 2.7-.2 5.4-.7 8.1-69.9 3.3-184.8-154.6-270.9-138.9z" style="fill: rgb(0, 94, 163);"/><path class="st2" d="M318 0h148.3c27.1 0 49.1 22 49.1 49.1v104.6C464.4 154.2 387.9 52 318 0zM473.3 227.7c-2.3.3-4.7.5-7.1.5H292.9c-24.4 0-44.6-17.8-48.5-41.1 60.3-58.3 152.8 21.2 228.9 40.6z" style="fill: rgb(0, 94, 163);"/><path class="st2" d="M510.1 201.1c-3.1 6.2-7.5 11.6-12.8 16-75-10.7-185.6-134.2-253.5-89.7v-26.9c88.8-22.9 197.3 101 266.3 100.6zM66.8 422.9c-2.8-.9-5.8-1.4-8.9-1.4-5.4 0-9.7 1.6-12.9 4.8-3.2 3.2-4.8 7.3-4.8 12.4 0 4.9 1.5 8.8 4.3 11.6 1.4 1.4 3.2 2.5 5.1 3.2 2 .7 4.2 1.1 6.7 1.1 1.9 0 3.8-.2 5.5-.5 1.8-.3 3.5-.8 5.2-1.5v-15.1h-5v11.7c-.8.3-1.6.5-2.4.6-.8.1-1.7.2-2.5.2-1.7 0-3.3-.3-4.7-.8-1.4-.5-2.5-1.3-3.5-2.4-1-1-1.7-2.3-2.2-3.7-.5-1.4-.7-3.1-.7-4.9 0-1.9.3-3.6.9-5.1.6-1.5 1.4-2.8 2.6-3.9 1-1 2.3-1.8 3.6-2.3 1.4-.5 2.9-.8 4.6-.8 1.5 0 2.9.1 4.4.4s2.8.7 4.2 1.2l.5-4.8z" style="fill: rgb(0, 94, 163);"/><path class="st3" d="M126.5 454l-8.5-11.2c-.6-.8-1.1-1.4-1.6-2-.5-.6-.8-1.1-1.2-1.5 1.4-.1 2.6-.4 3.7-.9s2.1-1.1 2.9-1.9c1.7-1.6 2.5-3.6 2.5-6.1 0-5.8-3.7-8.7-11.2-8.7-3.7 0-6.5.1-8.5.2V454h5.1v-13.9h.2l10 13.9h6.6zm-7.5-23c0 .8-.2 1.5-.5 2.2-.3.6-.8 1.2-1.4 1.7-.6.5-1.3.9-2.1 1.1-.8.2-1.7.4-2.7.4h-1.5c-.4 0-.8 0-1.1-.1V426c.5 0 1 0 1.4-.1h1.3c2.2 0 3.8.4 4.9 1.3 1.2.8 1.7 2.1 1.7 3.8zM187 454l-11.6-32.1h-5.8L158.1 454h5.2l2.5-7.1h13l2.5 7.1h5.7zm-9.6-11.2h-10.3l3.6-9.9c.7-1.8 1.1-3.5 1.5-5.1h.1c.3 1.7.8 3.3 1.4 4.9l3.7 10.1z" style="fill: rgb(0, 94, 163); fill-rule: evenodd; clip-rule: evenodd;"/><path class="st2" d="M246.4 441.7v-19.8h-5.1V442c0 1.5-.2 2.7-.5 3.8-.3 1-.8 1.9-1.3 2.5-.6.6-1.4 1.1-2.3 1.4-1 .3-2.1.5-3.5.5s-2.6-.2-3.5-.5c-1-.4-1.8-.9-2.4-1.6-.5-.6-.9-1.3-1.1-2.2-.2-.9-.4-1.9-.4-3.1V422h-5.1v21.2c0 3.8 1 6.7 3 8.5 2 1.9 5.1 2.8 9.1 2.8 4.4 0 7.6-1.1 9.8-3.2 2.3-2.1 3.3-5.3 3.3-9.6zM324.2 421.9H319l-5 20.1c-.4 1.7-.8 3.5-1.1 5.6-.3-2.1-.8-4.1-1.3-5.8L306 422h-5.7l-5.5 19.7c-.5 1.8-.9 3.8-1.2 6.1h-.1c-.1-1-.3-2.1-.5-3.1-.2-1.1-.4-2.1-.7-3.2l-4.9-19.5h-5.5l8.3 32.1h6.1l5.4-19.9c.5-1.9.9-3.9 1.1-5.9.4 2.5.9 4.5 1.3 6l5.4 19.9h6.4l8.3-32.3zM379.4 454v-4.7h-7.7c-4.4 0-6.9 0-7.5.1.8-1.2 1.3-2 1.7-2.6l13.3-20.8v-4.1h-20.7v4.6H373c-.4.5-.8 1.1-1.2 1.7l-1.2 1.8-12.6 20.1v3.9h21.4zM440.7 441.7v-19.8h-5.1V442c0 1.5-.2 2.7-.5 3.8-.3 1-.8 1.9-1.3 2.5-.6.6-1.4 1.1-2.3 1.4-1 .3-2.1.5-3.5.5s-2.6-.2-3.5-.5c-1-.4-1.8-.9-2.4-1.6-.5-.6-.9-1.3-1.1-2.2s-.4-1.9-.4-3.1V422h-5.1v21.2c0 3.8 1 6.7 3 8.5 2 1.9 5.1 2.8 9.1 2.8 4.4 0 7.6-1.1 9.8-3.2 2.2-2.1 3.3-5.3 3.3-9.6zM496.2 444.3c0-2.9-1.2-5.1-3.6-6.7-1.1-.5-2.3-1-3.4-1.5s-2.3-1-3.4-1.5c-1.2-.6-2.1-1.3-2.7-2-.6-.7-.9-1.5-.9-2.4 0-1.4.5-2.5 1.6-3.3.5-.4 1.2-.7 1.9-.9.7-.2 1.6-.3 2.6-.3 1.9 0 3.8.3 5.8.9l.3-4.6c-2.2-.4-4.2-.6-5.8-.6-1.8 0-3.4.2-4.9.6-1.4.4-2.7 1.1-3.7 1.9-1 .8-1.8 1.8-2.4 3-.5 1.1-.8 2.4-.8 3.8 0 1.5.3 2.8.9 3.9.6 1.1 1.5 2.1 2.7 2.9 1.1.5 2.3 1 3.4 1.5s2.3 1 3.4 1.6c1.2.5 2.1 1.2 2.7 1.9.6.7.9 1.6.9 2.5 0 1.7-.6 2.9-1.8 3.7-.6.4-1.3.7-2 .9-.8.2-1.6.3-2.5.3-1.1 0-2.3-.1-3.4-.3-1.1-.2-2.2-.5-3.3-.9l-.3 4.9c1.9.5 4.1.8 6.4.8 1.9 0 3.6-.2 5.1-.7 1.5-.5 2.8-1.2 4-2.2 2.1-1.8 3.2-4.2 3.2-7.2zM552.4 426.3v-4.4h-22.8v4.4h8.8V454h5.1v-27.7h8.9zM604 454v-4.4h-11.8v-10h11.2v-4.2h-11.2v-9.2H604v-4.3h-16.9V454H604z" style="fill: rgb(0, 94, 163);"/><path class="st3" d="M662.8 454l-8.5-11.2c-.6-.8-1.1-1.4-1.6-2-.5-.6-.8-1.1-1.2-1.5 1.4-.1 2.6-.4 3.7-.9s2.1-1.1 2.9-1.9c1.7-1.6 2.5-3.6 2.5-6.1 0-5.8-3.7-8.7-11.2-8.7-3.7 0-6.5.1-8.5.2V454h5.1v-13.9h.2l10 13.9h6.6zm-7.5-23c0 .8-.2 1.5-.5 2.2-.3.6-.8 1.2-1.3 1.7-.6.5-1.3.9-2.1 1.1-.8.2-1.7.4-2.7.4h-1.5c-.4 0-.8 0-1.1-.1V426c.5 0 1 0 1.4-.1h1.3c2.2 0 3.8.4 4.9 1.3 1.1.8 1.6 2.1 1.6 3.8z" style="fill: rgb(0, 94, 163); fill-rule: evenodd; clip-rule: evenodd;"/><path class="st2" d="M715.8 444.3c0-2.9-1.2-5.1-3.6-6.7-1.1-.5-2.3-1-3.4-1.5s-2.3-1-3.4-1.5c-1.2-.6-2.1-1.3-2.7-2-.6-.7-.9-1.5-.9-2.4 0-1.4.5-2.5 1.6-3.3.5-.4 1.2-.7 1.9-.9.7-.2 1.6-.3 2.6-.3 1.9 0 3.8.3 5.8.9l.3-4.6c-2.2-.4-4.2-.6-5.8-.6-1.8 0-3.4.2-4.9.6-1.4.4-2.7 1.1-3.7 1.9-1 .8-1.8 1.8-2.4 3-.5 1.1-.8 2.4-.8 3.8 0 1.5.3 2.8.9 3.9.6 1.1 1.5 2.1 2.7 2.9 1.1.5 2.3 1 3.4 1.5s2.3 1 3.4 1.6c1.2.5 2.1 1.2 2.7 1.9.6.7.9 1.6.9 2.5 0 1.7-.6 2.9-1.8 3.7-.6.4-1.3.7-2 .9-.8.2-1.6.3-2.5.3-1.1 0-2.3-.1-3.4-.3-1.1-.2-2.2-.5-3.3-.9l-.3 4.9c1.9.5 4.1.8 6.4.8 1.9 0 3.6-.2 5.1-.7 1.5-.5 2.8-1.2 4-2.2 2.1-1.8 3.2-4.2 3.2-7.2z" style="fill: rgb(0, 94, 163);"/><path style="fill: rgb(254, 247, 255); fill-opacity: 1; stroke: rgb(0, 0, 0); stroke-opacity: 1; stroke-width: 0; paint-order: fill;" d="M 68.50806427001953 322.7987060546875 L 68.50806427001953 322.7987060546875"/><path style="fill: rgb(255, 255, 255); fill-opacity: 1; stroke: rgb(0, 0, 0); stroke-opacity: 1; stroke-width: 0; paint-order: fill;" d="M 277.0276184082031 309.1995849609375 L 277.0276184082031 309.1995849609375"/><path style="fill: rgb(255, 255, 255); fill-opacity: 1; stroke: rgb(0, 0, 0); stroke-opacity: 1; stroke-width: 0; paint-order: fill;" d="M 321.6024475097656 311.46612548828125 L 321.6024475097656 311.46612548828125"/><path style="fill: rgb(255, 255, 255); fill-opacity: 1; stroke: rgb(0, 0, 0); stroke-opacity: 1; stroke-width: 0; paint-order: fill;" d="M 145.56964111328125 85.56993865966797"/></g></svg>